<svg width="48" height="48" viewBox="0 0 48 48" fill="none" xmlns="http://www.w3.org/2000/svg">
<rect width="48" height="48" rx="24" fill="#2C4EE3" fill-opacity="0.0705882"/>
<path d="M16.0008 31.5005V16.4993C16.0008 15.8363 16.2642 15.2003 16.733 14.7314C17.2018 14.2626 17.8376 13.9991 18.5006 13.9991H30.9993C31.2645 13.9991 31.5188 14.1045 31.7063 14.2921C31.8939 14.4796 31.9992 14.734 31.9992 14.9992V33.0007C31.9992 33.2659 31.8939 33.5203 31.7063 33.7078C31.5188 33.8954 31.2645 34.0007 30.9993 34.0007H18.5006C17.8376 34.0007 17.2018 33.7373 16.733 33.2685C16.2642 32.7996 16.0008 32.1636 16.0008 31.5005ZM16.0008 31.5005C16.0008 30.8375 16.2642 30.2015 16.733 29.7326C17.2018 29.2638 17.8376 29.0003 18.5006 29.0003H31.9992" stroke="#2C4EE3" stroke-width="2" stroke-linecap="round"/>
</svg>
